<?xml version="1.0" encoding="UTF-8"?>
<svg id="Warstwa_1" xmlns="http://www.w3.org/2000/svg" viewBox="0 0 710.44 1321.08">
  <defs>
    <style>
      .cls-1 {
        fill: #070707;
        opacity: .4;
      }
    </style>
  </defs>
  <path class="cls-1" d="M48.15,140.9c-.07-.07-.11-.11-.11-.12.01,0,.05.04.11.12Z"/>
  <path class="cls-1" d="M51.72,144.45c-1.88-1.48-3.08-2.96-3.51-3.48.48.47,1.9,1.79,3.51,3.48Z"/>
  <path class="cls-1" d="M53.42,156.95c-6.55,1.04-18.44-1.45-18.42-1.57.01-.11,11.31-.38,18.42,1.57Z"/>
  <path d="M696.18,287.99c-1.79-2.65-3.64-5.2-5.49-7.7,6.77-13.19,18.55-38.4,18.55-54.3,0-5.03-1.17-9.13-4.06-11.62-.95-.82-2.11-1.49-3.41-1.99l-4.45-3.18-35.78-3.46c.23-.53.54-1.02.98-1.44,1.02-.97,1.86-.71,3.52-1.43,1.79-.79,3.18-2.67,5.87-6.39,1.25-1.73,2.57-4.02,5.22-8.61.78-1.35,1.3-2.28,1.44-3.66.13-1.36-.18-2.56-1.57-5.47-1.57-3.29-2.82-5.2-4.82-8.74,0,0-.95-1.67-2.22-4.05-4.36-8.14-4.5-11.45-9-20.74-1.73-3.55-2.02-3.72-2.74-5.73-1.68-4.71-1.12-6.8-2.35-11.09-1.23-4.3-2.58-4.99-3.59-7.22,5.99-2.43,11.72-5.73,16.74-10.16,3.79-3.37,7.12-7.38,9.61-11.87l.92-1.69c.3-.55.54-1.08.81-1.65.52-1.12,1.02-2.27,1.48-3.45.92-2.35,1.66-4.79,2.15-7.32,1.01-5.03.88-10.54-.97-15.58-.85-2.53-2.31-4.91-3.99-6.96-1.68-2.08-3.68-3.73-5.68-5.21-4.07-2.88-8.31-5.04-12.51-7.12-4.22-2.06-8.43-4.01-12.62-6.01-1.43-.67-2.85-1.34-4.27-2.02-14.1-12.44-32.34-22.21-59.3-29.7-10.82-3-38.96-10.06-83.74-9.39-36.7.55-64.53.96-98.61,14.08-12.71,4.9-36.01,14.44-59.09,35.93,0,0-35.91,33.44-55.17,97.12-5.22,17.27-7.83,32.87-7.83,32.87-1.5,9.04-1.24,10.62-2.34,15.65-1.9,8.65-6.36,20.76-18,34.44-5.35,7.09-10.04,11.55-12.53,20.34-2.86,10.13-.52,17.89,0,22.7,1.12,10.3-4.13,25.36-31.1,46.77-2.72,22.29-12.64,43.65-27.98,60.07,2.42-2.05,24.2-23.28,26.74-21.27,1.65,1.3-3.56,13.56-13.56,22.95-12.19,11.43-27.01,14.41-26.61,15.65.45,1.43,19.11-4.4,20.35-1.56.87,2.02-28.21,24.86-31.07,29.42-11.58,18.44-15.73,46.22-17.75,67.47-1.29,13.64-.85,30.56-11.44,40.82-5.89,5.7-14.24,8.77-22.43,8.24,4.56,3.98,6.36,10.83,4.32,16.53-6.22,17.42-26.85,11.08-40.15,9.25,5.14.93,7.37,7.87,5.04,12.55-5.12,10.26-21.5,9.88-30.75,6.69-8.9-3.07-16.43-9.9-20.35-18.46,3.83,9.57,10.68,17.9,19.28,23.57-10-5.73-22.78-6.48-33.32-1.77,10.99-3.02,23.71,2.27,29.33,12.19l-18.71-1.47c3.32.78,6.78,1.62,9.38,3.82,2.61,2.2,4.04,6.19,2.27,9.11-1.66,2.74-5.39,3.47-8.55,2.92-3.15-.56-6.05-2.09-9.17-2.83-6.77-1.62-14.36.89-18.83,6.23,11.89-1.94,23.07-3.26,35.07-3.26,6.76-.57,9.16-1.36,9.65-.32,1.56,3.28-19.96,16.96-19.82,17.15.1.14,11.68-8.81,13.5-7.05,1.44,1.41-3.76,9.07-3.53,9.2.22.12,4.56-6.57,10.37-13.5,3.16-3.76,4.32-4.71,5.48-4.5,2.72.48,4.3,7.11,4.31,12.13.01,15.26-14.52,17.94-16.24,33.07-.78,6.78,1.35,13.26,4.89,24.06,3.03,9.24,5.88,13.62,3.72,18.39-2.81,6.17-11.54,7.52-12.33,7.63-12.25,1.73-23.1-8.94-23.48-8.41-.56.78,27.12,18.87,24.65,24.65-2.05,4.81-23.61-1.98-24.65,1.18-1,3.04,16.92,15.65,39.91,18.78,14.36,1.95,19.65-1.29,23.48,2.35,3.12,2.96,3.28,8.58,1.75,15.43,8.27,40.73-1.5,83.54-11.25,123.12-4.55,18.49-9.58,36.86-13.9,55.4-4.68,20.07-8.27,40.43-11.68,60.75-7.77,46.32-12.8,92.93-14.88,139.85-1.5,33.67-1.15,67.31,1.33,100.86,3.14,16.36,7.15,33.06,12.24,50.45,3.21,10.99,6.19,19.94,8.22,25.82.77,2.23,42.46-.08,46.95-.09l48.91-.09c32.6-.06,65.21-.12,97.81-.18,65.21-.12,130.42-.24,195.63-.36,65.21-.12,130.42-.24,195.63-.36l23.47-.04c4.38-.01,20.43,2.47,23.48-.62,4.75-4.8-9.07-35.67-11.07-42.12-9.62-31.05-19.24-62.1-28.87-93.15l-1.73-5.59-35.9-115.8-17.94-57.9c-3.09-9.95-6.51-19.86-9.27-29.89-2.29-8.33-.77-15.72-.41-24.37,1.38-18.36,3.44-35.15,1.81-53.48-1.8-20.33-3.99-40.62-6.56-60.86-2.99-23.61-6.51-47.16-10.54-70.63-3.14-18.26-15.77-47.66-4.27-63.9,6.27-8.86,5.89-24.87,6.03-35.11.3-21.59.08-47.46-12.29-65.85-2.65-3.94-6.69-9.93-11.74-17.22-6.38-9.2-7.43-10.49-10.18-14.87-2.86-4.57-2.93-5.1-10.95-19.56-6.35-11.45-6.79-11.98-8.61-15.65-3.82-7.73-6.31-14.34-7.83-18.79-.08-1.27-.06-3.12.53-5.21.95-3.43,2.89-5.59,3.91-6.79,3.14-3.68.74-1.92,8.87-13.56,5.27-7.56,4.74-6.09,9.39-12.78,6.55-9.43,7.07-11.57,10.43-13.83.89-.6,3.73-2.38,7.05-5.48,1.02-.96,1.83-1.79,2.35-2.35,1.19.2,3,.45,5.21.52,3.02.11,5.13-.16,6.26-.26,3.61-.31,6.09.35,11.74,1.57,7.47,1.61,12.01,2.6,17.22,3.39,8.77,1.34,13.23,1.19,16.96,3.13.41.22,2.62,1.4,5.74,2.35,1.52.46,2.28.7,3.39.78,3.15.24,5.6-.97,6.78-1.56.93-.48,2.27-1.28,3.65-2.61-.04.22-.72,3.9.78,4.69.71.38,1.64-.02,3.4-1.04,1.75-1.02,4.11-2.53,6.78-4.7.78-.95,1.56-1.91,2.35-2.87,1.34.06,3.47-.04,5.74-1.04,1.39-.61,2.65-1.48,5.21-4.17,3.62-3.79,5.95-7.14,6.79-8.35,2.72-3.99,4.09-5.98,4.95-8.87.76-2.54.88-4.64,1.05-7.57.12-2.27.27-4.85-.27-8.08-.37-2.29-.67-2.39-2.08-7.31-1.33-4.61-1.99-6.92-2.09-8.87-.17-3.28.54-5.68,1.57-9.13,1.01-3.42,1.95-6.59,4.43-9.91,1.91-2.55,2.9-2.75,3.39-4.7.47-1.85-.12-3.75-1.3-7.56-1.1-3.52-1.88-4.3-2.35-4.7-.94-.77-2.86-1.82-2.87-1.82-.25-.96-.39-2.2.26-3.13.65-.93,1.51-.71,3.13-1.57,2.4-1.27,3.61-3.39,3.91-3.91.56-.97.83-1.84,1.31-3.39.72-2.33.79-3.59,1.3-3.65.58-.07.63,1.53,2.09,2.34,1.35.75,3.39.52,3.39.52,1.16-.14,2.68-.5,3.13-1.56.16-.38.16-.88-1.04-3.65-.97-2.24-1.4-2.9-1.18-3.13.57-.58,4.3,2.4,4.57,2.08.42-.48-9.44-6.47-8.87-13.3.29-3.54,3.1-6.24,3.39-6.52,1.2-1.13,2.74-1.73,5.74-2.87,7.45-2.84,8.93-3.38,10.83-4.18,3.73-1.56,5.59-2.34,7.95-3.91,2.88-1.92,6.58-4.48,8.22-8.87,2.25-6.03-.65-12.25-2.48-16.17-1.03-2.2-2.36-4.24-5.08-8.27ZM655.18,53.04c1.08.58,2.15,1.18,3.22,1.77,4,2.24,7.95,4.56,11.33,7.24,3.41,2.66,5.93,5.78,7.06,9.54,1.18,3.77,1.15,7.9.16,11.92-.99,4.01-2.82,7.98-5.17,11.55-2.26,3.5-5.16,6.55-8.48,9.13-3.13,2.44-6.58,4.53-10.23,6.35,1.13-3.99,2.65-7.86,4.31-11.67,2.63-6.08,6.72-11.28,9.38-17.25,4.22-9.47-4.24-20.77-11.58-28.58ZM700.78,214.13c.44.16.86.34,1.25.54.69.35,1.3.75,1.84,1.21,4.44,3.83,4.14,12.41,1.71,22.23l-30-3.33c.17-.72.36-1.45.56-2.17,2.06-7.43,3.84-13.85,9.45-17.14,4.38-2.57,10.73-2.99,15.19-1.34ZM661.06,207.7l35.53,3.44.13.09c-4.12-.36-8.64.46-12.14,2.51-4.1,2.41-6.33,6.12-7.98,10.57-1.33-.79-3.75-1.84-6.69-1.3-1.41.26-2.57.82-3.46,1.41-.08-.72-.22-1.48-.41-2.25-1.31-5.27-4.07-5.8-4.82-11.09-.1-.7-.29-2.01-.16-3.38ZM672.06,255.5c-3.65-4.04-6.97-7.16-9.41-9.33.07-1.03.2-2.58.53-4.43.48-2.75,1.09-4.52,1.66-6.14l8.31.92c-1.25,6.14-1.61,12.49-1.09,18.98ZM665.51,233.66c.25-.83.48-1.71.67-2.75.15-.85.39-2.29.4-4.07.73-.66,1.97-1.55,3.69-1.86,2.61-.48,4.72.64,5.65,1.26-.6,1.85-1.15,3.81-1.71,5.84-.23.82-.44,1.64-.63,2.47l-8.07-.89ZM689,279.19l-14.69-21.12v-.02c-.86-7.31-.58-14.46.84-21.31l7.9.88-.16,1.46,20.21,2.3c-1.27,2.11-1.13,2.28-.44,2.75.23.15.41.24.6.24.2,0,.4-.1.66-.35-4.04,12.98-10.69,26.87-14.57,34.47-.12.24-.23.47-.35.7Z"/>
</svg>